<?xml version="1.0" encoding="utf-8"?>
<!-- Generator: Adobe Illustrator 18.0.0, SVG Export Plug-In . SVG Version: 6.00 Build 0)  -->
<!DOCTYPE svg PUBLIC "-//W3C//DTD SVG 1.1//EN" "http://www.w3.org/Graphics/SVG/1.1/DTD/svg11.dtd">
<svg version="1.1" id="Layer_1" xmlns="http://www.w3.org/2000/svg" xmlns:xlink="http://www.w3.org/1999/xlink" x="0px" y="0px"
	 viewBox="0 0 841.9 173.3" enable-background="new 0 0 841.9 173.3" xml:space="preserve">
<g>
	<path fill="#3F403F" d="M253.4,80.1h-28v18.1h33v13h-49.7v-72h50.3v12.4h-33.5V67h28L253.4,80.1L253.4,80.1z"/>
	<path fill="#3F403F" d="M304.3,96.9H282l-4.4,13.7h-16.8l23-71.4H302l23,72h-16.8L304.3,96.9z M285,83.9h15.4L293,58.4l0,0
		L285,83.9z"/>
	<path fill="#3F403F" d="M346.6,83.2v27.2h-16.8V39H357c8,0,14.9,1.9,19.8,5.5c5,3.8,7.4,9.3,7.4,15.4c0,3.8-1.3,6.9-3,9.3
		c-1.9,2.5-5,5-8.8,6.3c4.4,1.3,7.4,3,9.3,6.3s3,6.9,3,11.2v4.4c0,1.9,0,3.8,0.6,6.3c0.6,2.5,1.3,4.4,3,5v1.3h-17.3
		c-1.3-1.3-2.5-3-2.5-5.5c-0.6-2.5-0.6-5-0.6-7.4v-4.4c0-3.8-0.6-6.3-2.5-8c-1.9-1.9-4.4-2.5-8-2.5h-11.2v1H346.6z M346.6,70.2h11.2
		c3,0,6.3-0.6,7.4-2.5c1.9-1.3,2.5-3.8,2.5-6.9c0-3-0.6-5.5-2.5-6.9c-1.9-1.9-4.4-2.5-7.4-2.5h-11.2V70.2z"/>
	<path fill="#3F403F" d="M413.6,98.2h31v13h-47.8v-72h16.8V98.2z"/>
	<path fill="#3F403F" d="M463.9,70.2L463.9,70.2l14.9-31h18.1l-24.2,46.5v25.5h-16.8V85.1l-24.2-45.9h18.1L463.9,70.2z"/>
	<path fill="#3F403F" d="M557,87L557,87c0,7.4-1.9,13.7-6.9,18.1c-5,4.4-11.2,6.9-19.8,6.9c-8.8,0-14.9-3-20.6-8.8
		c-5-5.5-8-13-8-21.7V67.7c0-8.8,2.5-16.2,8-21.7c5-5.5,11.8-8.8,20.6-8.8s14.9,2.5,19.8,6.9c5,4.4,7.4,10.5,6.9,18.1l0,0h-11.8
		c0-5-1.3-8.8-3.8-11.2c-2.5-2.5-6.3-4.4-11.8-4.4c-5,0-8.8,1.9-11.8,5.5c-3,3.8-4.4,8.8-4.4,14.3v13.7c0,6.3,1.3,10.5,4.4,14.9
		s6.9,5.5,11.8,5.5c5,0,8.8-1.3,11.2-3.8c2.5-2.5,3.8-6.3,3.8-11.2H557L557,87L557,87z"/>
	<path fill="#3F403F" d="M580.7,101.3h33v9.3h-44.8V39.2h11.8V101.3L580.7,101.3z"/>
	<path fill="#3F403F" d="M663.1,93.8h-28l-5.5,16.8h-12.4l26.1-71.4h11.2l26.1,72h-12.4L663.1,93.8z M638.4,83.9h21.1L649,53.5l0,0
		L638.4,83.9z"/>
	<path fill="#3F403F" d="M701.6,110.6h-11.8V39.2h11.8V110.6z"/>
	<path fill="#3F403F" d="M733.8,39.2l20.6,55.2l0,0l20.6-55.2h15.4v72h-11.8V87l1.3-31l0,0l-21.1,55.8h-8l-21.1-55.2l0,0l1.3,31
		v24.2h-11.8V39.2L733.8,39.2L733.8,39.2z"/>
</g>
<path fill="#3F403F" d="M48.7,32.3L50,26l1.3,0.6h1.3l4.4-5l2.5,4.4l2.5-3l6.3-3.8l0.6,6.3l5-1.9l6.9,1.9L76.9,31l-4.4,3l-3.8,1.9
	h-5.5l0.6,1.9l5,5.5l8.8,1.9l7.4,3.8l7.4,2.5l-8,3.8l11.8,1.3l-2.5,2.5l-1.9,1.3l23,11.8l12.4,1.3l-2.5-9.9l2.5-10.5l8-11.2l11.2-5
	l17.3-1.9l16.8,10.5l7.8,19c0,0.6-3.8,19.2-3.8,19.2l-3,5.5l-5-16.2l-8-14.9l-4.4-3.8l2.5,5.5l4.4,12.4l3,22.3l-8.8,8l-5.5,0.6
	l-1.9-16.8l-2.5-9.3l-6.9-6.3l3,6.3l1.9,11.8l-1.3,6.3l-5.5,2.5h6.3l-3,3l-5.5,0.6l6.9,1.9l-8,4.4l-7.4-1.3l-16.2,8.8l5,8l-5.5,14.3
	l0.6,4.4l0.6,1.9l8,5.5l-6.3-0.6l-0.6,2.5l6.9,6.3l-6.3-0.6l-2.5-1.3l-6.3,1.9l-12.4-0.6l7.4-4.4l8-1.9l-1.3-24.2l-4.4-8.8l-8.8-5.5
	l-5,7.4l-12.4-1.9l-5,1.9l-5-3v6.3L65,114l-14.3-0.6v-5.5l3.8-3l7.4,3l7.4,3.8l9.9,3l6.9-0.6l6.9-6.3v-4.4L76.3,86.8l-1.9-15.4
	l-1.9,1.3l-1.9,4.4l-1.3-5l-0.6-9.3l-1.9,5l-2.5-9.9l-4.4-5.5l-0.6,7.4l-3.8,2.5l-4.4-1.3l-3.8-12.4c0,0-1.9-3-1.9-2.5l-6.3-1.3
	l8-4.4l-8-6.3h7.4L48.7,32.3z"/>
</svg>
